<?xml version="1.0" encoding="utf-8"?>
<!-- Generator: Adobe Illustrator 24.0.1, SVG Export Plug-In . SVG Version: 6.00 Build 0)  -->
<!DOCTYPE svg PUBLIC "-//W3C//DTD SVG 1.1//EN" "http://www.w3.org/Graphics/SVG/1.1/DTD/svg11.dtd" [
	<!ENTITY ns_extend "http://ns.adobe.com/Extensibility/1.0/">
	<!ENTITY ns_ai "http://ns.adobe.com/AdobeIllustrator/10.0/">
	<!ENTITY ns_graphs "http://ns.adobe.com/Graphs/1.0/">
	<!ENTITY ns_vars "http://ns.adobe.com/Variables/1.0/">
	<!ENTITY ns_imrep "http://ns.adobe.com/ImageReplacement/1.0/">
	<!ENTITY ns_sfw "http://ns.adobe.com/SaveForWeb/1.0/">
	<!ENTITY ns_custom "http://ns.adobe.com/GenericCustomNamespace/1.0/">
	<!ENTITY ns_adobe_xpath "http://ns.adobe.com/XPath/1.0/">
]>
<svg version="1.1" id="Calque_1" xmlns:x="&ns_extend;" xmlns:i="&ns_ai;" xmlns:graph="&ns_graphs;"
	 xmlns="http://www.w3.org/2000/svg" xmlns:xlink="http://www.w3.org/1999/xlink" x="0px" y="0px" viewBox="0 0 56.7 55.3"
	 style="enable-background:new 0 0 56.7 55.3;" xml:space="preserve">
<style type="text/css">
	.st0{fill:#FFFFFF;}
</style>
<metadata>
	<sfw  xmlns="&ns_sfw;">
		<slices></slices>
		<sliceSourceBounds  bottomLeftOrigin="true" height="55.3" width="56.7" x="121.7" y="164"></sliceSourceBounds>
	</sfw>
</metadata>
<g>
	<path class="st0" d="M28.7,0c0.7,0,1.4,0.1,2.1,0.1c2,0.1,4,0.5,6,1.1C39.5,2.1,42,3.4,44.4,5c3.6,2.5,6.5,5.7,8.7,9.5
		c1.6,2.8,2.6,5.7,3.2,8.8c0.4,2.3,0.5,4.6,0.4,6.9c-0.4,5.8-2.4,11-6,15.6c-2.8,3.6-6.3,6.3-10.4,8.3c-0.9,0.4-1.8,0.7-2.8,1.1
		c-0.4,0.2-0.8,0.2-1.2,0c-0.6-0.2-0.8-0.7-0.8-1.5c0-2.6,0.1-5.2,0-7.7c0-1.6-0.3-3.1-1.3-4.4c-0.2-0.2-0.3-0.4-0.5-0.6
		c0.6-0.1,1.2-0.2,1.8-0.3c2.2-0.4,4.4-1.1,6.3-2.4c2.1-1.5,3.4-3.5,4.1-6c0.6-2.3,0.8-4.6,0.6-6.9c-0.2-2.2-1.1-4.1-2.6-5.8
		c-0.2-0.2-0.2-0.3-0.1-0.6c0.8-2.4,0.5-4.7-0.3-7c0-0.1-0.2-0.2-0.4-0.2c-1.3-0.1-2.5,0.2-3.7,0.8c-1.2,0.6-2.4,1.3-3.6,2
		c-0.1,0.1-0.3,0.1-0.4,0.1c-2.6-0.7-5.2-1-7.9-0.9c-1.9,0.1-3.8,0.3-5.7,0.8c-0.3,0.1-0.4,0.1-0.7-0.1c-1.5-1-3.1-1.9-4.9-2.4
		c-0.8-0.2-1.5-0.4-2.3-0.3c-0.2,0-0.3,0.1-0.4,0.3c-0.9,2.3-1.1,4.7-0.3,7.1c0.1,0.2,0,0.3-0.1,0.5c-0.8,0.9-1.4,1.9-1.9,3
		c-0.5,1.1-0.8,2.3-0.8,3.5c-0.1,2.4,0.1,4.7,0.9,7c1.1,3.2,3.3,5.4,6.5,6.7c1.7,0.7,3.4,1,5.2,1.2c0.1,0,0.1,0,0.1,0
		c-0.4,0.7-0.8,1.4-1.2,2.1c-0.2,0.4-0.3,0.9-0.4,1.3c-0.1,0.2-0.1,0.4-0.4,0.5c-1.4,0.5-2.8,0.8-4.2,0.4c-1.6-0.4-2.7-1.3-3.5-2.6
		c-0.7-1.2-1.6-2.2-2.9-2.8c-0.8-0.4-1.7-0.5-2.5-0.3c-0.5,0.1-0.6,0.5-0.3,0.8c0.2,0.3,0.5,0.5,0.7,0.7c1.1,0.6,1.8,1.5,2.4,2.5
		c0.4,0.6,0.7,1.3,1,2c0.8,1.7,2.2,2.7,4,3.1c1.4,0.3,2.9,0.3,4.4,0.1c0.4-0.1,0.7-0.1,1.1-0.1c0,0.8,0,1.5,0,2.3c0,0.9,0,1.8,0,2.7
		c0.1,1.4-0.9,1.9-2.1,1.5c-2.5-0.8-4.8-2-6.9-3.5c-3.4-2.4-6.2-5.3-8.3-8.9c-1.9-3.1-3.1-6.5-3.6-10.1c-0.3-2.1-0.4-4.2-0.3-6.3
		c0.3-4.6,1.7-8.9,4.1-12.9c1.4-2.2,3-4.2,4.9-6c2.5-2.3,5.4-4.1,8.5-5.4c2.2-0.9,4.4-1.5,6.7-1.8c1.1-0.2,2.2-0.2,3.3-0.3
		c0.1,0,0.2,0,0.3,0C28.2,0,28.4,0,28.7,0z"/>
</g>
</svg>
