<?xml version="1.0" encoding="utf-8"?>
<!-- Generator: Adobe Illustrator 24.0.1, SVG Export Plug-In . SVG Version: 6.00 Build 0)  -->
<!DOCTYPE svg PUBLIC "-//W3C//DTD SVG 1.1//EN" "http://www.w3.org/Graphics/SVG/1.1/DTD/svg11.dtd" [
	<!ENTITY ns_extend "http://ns.adobe.com/Extensibility/1.0/">
	<!ENTITY ns_ai "http://ns.adobe.com/AdobeIllustrator/10.0/">
	<!ENTITY ns_graphs "http://ns.adobe.com/Graphs/1.0/">
	<!ENTITY ns_vars "http://ns.adobe.com/Variables/1.0/">
	<!ENTITY ns_imrep "http://ns.adobe.com/ImageReplacement/1.0/">
	<!ENTITY ns_sfw "http://ns.adobe.com/SaveForWeb/1.0/">
	<!ENTITY ns_custom "http://ns.adobe.com/GenericCustomNamespace/1.0/">
	<!ENTITY ns_adobe_xpath "http://ns.adobe.com/XPath/1.0/">
]>
<svg version="1.1" id="Calque_1" xmlns:x="&ns_extend;" xmlns:i="&ns_ai;" xmlns:graph="&ns_graphs;"
	 xmlns="http://www.w3.org/2000/svg" xmlns:xlink="http://www.w3.org/1999/xlink" x="0px" y="0px" viewBox="0 0 283.465 283.465"
	 enable-background="new 0 0 283.465 283.465" xml:space="preserve">
<metadata>
	<sfw  xmlns="&ns_sfw;">
		<slices></slices>
		<sliceSourceBounds  bottomLeftOrigin="true" height="283.465" width="283.465" x="24.014" y="0"></sliceSourceBounds>
	</sfw>
</metadata>
<path fill="#FFFFFF" d="M272.237,0H11.228C5.027,0,0,5.027,0,11.228v261.009c0,6.201,5.027,11.228,11.228,11.228h261.009
	c6.201,0,11.228-5.027,11.228-11.228V11.228C283.465,5.027,278.438,0,272.237,0z M86.095,238.432c0,2.676-0.006,2.682-2.605,2.682
	c-12.423,0.002-24.845-0.035-37.268,0.04c-1.858,0.011-2.405-0.516-2.403-2.391c0.049-43.418,0.049-86.835-0.001-130.253
	c-0.002-1.911,0.609-2.371,2.431-2.361c12.422,0.071,24.845,0.036,37.268,0.038c2.568,0,2.578,0.007,2.578,2.545
	c0.003,21.709,0.002,43.418,0.002,65.127C86.096,195.383,86.097,216.908,86.095,238.432z M64.982,88.388
	c-13.519-0.038-24.486-11.08-24.445-24.612c0.041-13.56,11.016-24.403,24.609-24.423c12.446-0.018,24.392,9.776,24.465,24.403
	C89.683,77.971,78.371,88.271,64.982,88.388z M242.917,238.529c0.001,2.579-0.009,2.585-2.521,2.585
	c-12.485,0.002-24.969,0.002-37.454,0c-2.55,0-2.558-0.007-2.559-2.544c-0.017-23.862,0.032-47.725-0.094-71.587
	c-0.028-5.28-0.753-10.54-2.814-15.506c-2.714-6.536-7.57-10.217-14.59-11.164c-4.147-0.56-8.236-0.311-12.234,0.77
	c-8.786,2.375-13.321,8.757-15.012,17.191c-1.019,5.084-1.518,10.349-1.558,15.538c-0.167,21.524-0.07,43.05-0.071,64.576
	c0,2.723-0.005,2.726-2.745,2.727c-12.362,0.001-24.724-0.035-37.085,0.039c-1.856,0.011-2.418-0.522-2.416-2.394
	c0.046-43.358,0.035-86.716,0.038-130.075c0-2.484,0.014-2.496,2.442-2.496c11.808-0.004,23.616-0.003,35.425-0.001
	c2.577,0,2.582,0.007,2.584,2.507c0.003,4.613-0.002,9.225,0.005,13.838c0.001,0.593,0.052,1.186,0.079,1.779
	c3.551-5.49,7.874-9.961,13.15-13.503c9.875-6.63,20.878-8.582,32.536-7.732c7.665,0.558,15.112,2.022,21.94,5.725
	c9.483,5.143,15.241,13.285,18.544,23.366c3.29,10.044,4.27,20.438,4.331,30.9C242.982,188.221,242.907,213.375,242.917,238.529z"/>
</svg>
