<svg width="695" height="561" viewBox="0 0 695 561" fill="none" xmlns="http://www.w3.org/2000/svg">
<g filter="url(#filter0_f_429_97)">
<path d="M102.8 543H22L226 129L286 250.191L245.2 332.34L226 293.299L102.8 543Z" stroke="#FFA057"/>
</g>
<g filter="url(#filter1_f_429_97)">
<path d="M673 543H591.431L413.1 182.164L234.769 543H154L413.1 18L673 543Z" stroke="#FFA057"/>
</g>
<g filter="url(#filter2_f_429_97)">
<path d="M539 543H287L413 287L460.051 382.086L428.949 445.476L413 413.781L377.911 486.111H448.886L479.987 422.721L539 543Z" stroke="#FFA057"/>
</g>
<g filter="url(#filter3_f_429_97)">
<g filter="url(#filter4_f_429_97)">
<path d="M102.8 543H22L226 129L286 250.191L245.2 332.34L226 293.299L102.8 543Z" stroke="#FFA057" stroke-width="2"/>
</g>
<g filter="url(#filter5_f_429_97)">
<path d="M673 543H591.431L413.1 182.164L234.769 543H154L413.1 18L673 543Z" stroke="#FFA057" stroke-width="2"/>
</g>
<g filter="url(#filter6_f_429_97)">
<path d="M539 543H287L413 287L460.051 382.086L428.949 445.476L413 413.781L377.911 486.111H448.886L479.987 422.721L539 543Z" stroke="#FFA057" stroke-width="2"/>
</g>
</g>
<g filter="url(#filter7_f_429_97)">
<g filter="url(#filter8_f_429_97)">
<path d="M102.8 543H22L226 129L286 250.191L245.2 332.34L226 293.299L102.8 543Z" stroke="#FFA057" stroke-width="2"/>
</g>
<g filter="url(#filter9_f_429_97)">
<path d="M673 543H591.431L413.1 182.164L234.769 543H154L413.1 18L673 543Z" stroke="#FFA057" stroke-width="2"/>
</g>
<g filter="url(#filter10_f_429_97)">
<path d="M539 543H287L413 287L460.051 382.086L428.949 445.476L413 413.781L377.911 486.111H448.886L479.987 422.721L539 543Z" stroke="#FFA057" stroke-width="2"/>
</g>
</g>
<g filter="url(#filter11_f_429_97)">
<g filter="url(#filter12_f_429_97)">
<path d="M102.8 543H22L226 129L286 250.191L245.2 332.34L226 293.299L102.8 543Z" stroke="#FFA057" stroke-width="2"/>
</g>
<g filter="url(#filter13_f_429_97)">
<path d="M673 543H591.431L413.1 182.164L234.769 543H154L413.1 18L673 543Z" stroke="#FFA057" stroke-width="2"/>
</g>
<g filter="url(#filter14_f_429_97)">
<path d="M539 543H287L413 287L460.051 382.086L428.949 445.476L413 413.781L377.911 486.111H448.886L479.987 422.721L539 543Z" stroke="#FFA057" stroke-width="2"/>
</g>
</g>
<path d="M245.204 330.083L226.897 292.857L226.001 291.036L225.103 292.856L102.178 542H23.6076L226.002 131.258L284.884 250.19L245.204 330.083Z" stroke="#FFA057" stroke-width="2"/>
<path d="M412.204 181.721L234.148 542H155.609L413.102 20.2567L671.389 542H592.053L413.997 181.721L413.1 179.907L412.204 181.721Z" stroke="#FFA057" stroke-width="2"/>
<path d="M458.936 382.088L428.938 443.229L413.893 413.331L412.984 411.524L412.1 413.345L377.012 485.675L376.315 487.111H377.911H448.886H449.509L449.784 486.552L479.987 424.991L537.395 542H288.607L413.002 289.26L458.936 382.088Z" stroke="#FFA057" stroke-width="2"/>
<defs>
<filter id="filter0_f_429_97" x="17.1962" y="123.871" width="273.362" height="423.629" filterUnits="userSpaceOnUse" color-interpolation-filters="sRGB">
<feFlood flood-opacity="0" result="BackgroundImageFix"/>
<feBlend mode="normal" in="SourceGraphic" in2="BackgroundImageFix" result="shape"/>
<feGaussianBlur stdDeviation="2" result="effect1_foregroundBlur_429_97"/>
</filter>
<filter id="filter1_f_429_97" x="149.196" y="12.8716" width="528.61" height="534.628" filterUnits="userSpaceOnUse" color-interpolation-filters="sRGB">
<feFlood flood-opacity="0" result="BackgroundImageFix"/>
<feBlend mode="normal" in="SourceGraphic" in2="BackgroundImageFix" result="shape"/>
<feGaussianBlur stdDeviation="2" result="effect1_foregroundBlur_429_97"/>
</filter>
<filter id="filter2_f_429_97" x="282.197" y="281.87" width="261.606" height="265.63" filterUnits="userSpaceOnUse" color-interpolation-filters="sRGB">
<feFlood flood-opacity="0" result="BackgroundImageFix"/>
<feBlend mode="normal" in="SourceGraphic" in2="BackgroundImageFix" result="shape"/>
<feGaussianBlur stdDeviation="2" result="effect1_foregroundBlur_429_97"/>
</filter>
<filter id="filter3_f_429_97" x="-4" y="-4" width="703" height="569" filterUnits="userSpaceOnUse" color-interpolation-filters="sRGB">
<feFlood flood-opacity="0" result="BackgroundImageFix"/>
<feBlend mode="normal" in="SourceGraphic" in2="BackgroundImageFix" result="shape"/>
<feGaussianBlur stdDeviation="2" result="effect1_foregroundBlur_429_97"/>
</filter>
<filter id="filter4_f_429_97" x="10.3925" y="116.742" width="286.724" height="437.258" filterUnits="userSpaceOnUse" color-interpolation-filters="sRGB">
<feFlood flood-opacity="0" result="BackgroundImageFix"/>
<feBlend mode="normal" in="SourceGraphic" in2="BackgroundImageFix" result="shape"/>
<feGaussianBlur stdDeviation="5" result="effect1_foregroundBlur_429_97"/>
</filter>
<filter id="filter5_f_429_97" x="142.391" y="5.74316" width="542.219" height="548.257" filterUnits="userSpaceOnUse" color-interpolation-filters="sRGB">
<feFlood flood-opacity="0" result="BackgroundImageFix"/>
<feBlend mode="normal" in="SourceGraphic" in2="BackgroundImageFix" result="shape"/>
<feGaussianBlur stdDeviation="5" result="effect1_foregroundBlur_429_97"/>
</filter>
<filter id="filter6_f_429_97" x="275.393" y="274.74" width="275.211" height="279.26" filterUnits="userSpaceOnUse" color-interpolation-filters="sRGB">
<feFlood flood-opacity="0" result="BackgroundImageFix"/>
<feBlend mode="normal" in="SourceGraphic" in2="BackgroundImageFix" result="shape"/>
<feGaussianBlur stdDeviation="5" result="effect1_foregroundBlur_429_97"/>
</filter>
<filter id="filter7_f_429_97" x="-4" y="-4" width="703" height="569" filterUnits="userSpaceOnUse" color-interpolation-filters="sRGB">
<feFlood flood-opacity="0" result="BackgroundImageFix"/>
<feBlend mode="normal" in="SourceGraphic" in2="BackgroundImageFix" result="shape"/>
<feGaussianBlur stdDeviation="2" result="effect1_foregroundBlur_429_97"/>
</filter>
<filter id="filter8_f_429_97" x="10.3925" y="116.742" width="286.724" height="437.258" filterUnits="userSpaceOnUse" color-interpolation-filters="sRGB">
<feFlood flood-opacity="0" result="BackgroundImageFix"/>
<feBlend mode="normal" in="SourceGraphic" in2="BackgroundImageFix" result="shape"/>
<feGaussianBlur stdDeviation="5" result="effect1_foregroundBlur_429_97"/>
</filter>
<filter id="filter9_f_429_97" x="142.391" y="5.74316" width="542.219" height="548.257" filterUnits="userSpaceOnUse" color-interpolation-filters="sRGB">
<feFlood flood-opacity="0" result="BackgroundImageFix"/>
<feBlend mode="normal" in="SourceGraphic" in2="BackgroundImageFix" result="shape"/>
<feGaussianBlur stdDeviation="5" result="effect1_foregroundBlur_429_97"/>
</filter>
<filter id="filter10_f_429_97" x="275.393" y="274.74" width="275.211" height="279.26" filterUnits="userSpaceOnUse" color-interpolation-filters="sRGB">
<feFlood flood-opacity="0" result="BackgroundImageFix"/>
<feBlend mode="normal" in="SourceGraphic" in2="BackgroundImageFix" result="shape"/>
<feGaussianBlur stdDeviation="5" result="effect1_foregroundBlur_429_97"/>
</filter>
<filter id="filter11_f_429_97" x="-4" y="-4" width="703" height="569" filterUnits="userSpaceOnUse" color-interpolation-filters="sRGB">
<feFlood flood-opacity="0" result="BackgroundImageFix"/>
<feBlend mode="normal" in="SourceGraphic" in2="BackgroundImageFix" result="shape"/>
<feGaussianBlur stdDeviation="2" result="effect1_foregroundBlur_429_97"/>
</filter>
<filter id="filter12_f_429_97" x="10.3925" y="116.742" width="286.724" height="437.258" filterUnits="userSpaceOnUse" color-interpolation-filters="sRGB">
<feFlood flood-opacity="0" result="BackgroundImageFix"/>
<feBlend mode="normal" in="SourceGraphic" in2="BackgroundImageFix" result="shape"/>
<feGaussianBlur stdDeviation="5" result="effect1_foregroundBlur_429_97"/>
</filter>
<filter id="filter13_f_429_97" x="142.391" y="5.74316" width="542.219" height="548.257" filterUnits="userSpaceOnUse" color-interpolation-filters="sRGB">
<feFlood flood-opacity="0" result="BackgroundImageFix"/>
<feBlend mode="normal" in="SourceGraphic" in2="BackgroundImageFix" result="shape"/>
<feGaussianBlur stdDeviation="5" result="effect1_foregroundBlur_429_97"/>
</filter>
<filter id="filter14_f_429_97" x="275.393" y="274.74" width="275.211" height="279.26" filterUnits="userSpaceOnUse" color-interpolation-filters="sRGB">
<feFlood flood-opacity="0" result="BackgroundImageFix"/>
<feBlend mode="normal" in="SourceGraphic" in2="BackgroundImageFix" result="shape"/>
<feGaussianBlur stdDeviation="5" result="effect1_foregroundBlur_429_97"/>
</filter>
</defs>
</svg>
