<svg stroke="currentColor" fill="currentColor" stroke-width="0" version="1.1" xmlns="http://www.w3.org/2000/svg" xmlns:xlink="http://www.w3.org/1999/xlink" x="0px" y="0px" viewBox="0 0 56.7 56.7">
<path class="st0" d="M0,0c18.9,0,37.8,0,56.7,0c0,18.9,0,37.8,0,56.7c-18.9,0-37.8,0-56.7,0C0,37.8,0,18.9,0,0z M43.6,52.2
	c0.6,0,1.1,0,1.7-0.1c1.1-0.1,2.2-0.5,3.2-1c1.2-0.6,2.3-1.5,3-2.7c0.8-1.4,1-2.9,0.8-4.4c-0.2-2-0.9-3.7-2.5-5
	c-1-0.8-2.2-1.5-3.4-2c-1.2-0.6-2.4-1.1-3.6-1.7c-0.7-0.3-1.4-0.8-1.8-1.6c-0.3-0.8-0.2-2.1,0.6-2.7c0.6-0.4,1.2-0.5,1.8-0.5
	c1,0,1.8,0.4,2.5,1.2c0.2,0.3,0.4,0.5,0.6,0.8c0.1,0.1,0.2,0.2,0.4,0.1c0.2-0.1,0.4-0.3,0.6-0.4c1-0.7,2-1.3,3-2
	c0.2-0.1,0.3-0.3,0.1-0.5c-0.3-0.4-0.6-0.8-0.9-1.1c-1-1.2-2.2-2.1-3.8-2.4c-2-0.4-4-0.5-5.9,0.2c-1.7,0.6-3,1.7-3.8,3.3
	c-0.9,1.6-0.9,3.4-0.6,5.1c0.3,1.7,1.3,3,2.7,4.1c1.3,1,2.7,1.6,4.2,2.3c1.1,0.5,2.2,1,3.3,1.7c0.9,0.5,1.2,1.4,1.1,2.4
	c-0.1,0.9-0.7,1.4-1.5,1.8c-0.9,0.4-1.9,0.5-2.9,0.4c-0.9-0.1-1.8-0.4-2.5-1c-0.6-0.6-1.2-1.2-1.7-1.9c-0.1-0.2-0.2-0.2-0.4-0.1
	c-0.4,0.2-0.8,0.5-1.2,0.7c-0.9,0.5-1.8,1.1-2.7,1.6c-0.2,0.1-0.2,0.2-0.1,0.4c0.2,0.3,0.4,0.6,0.5,0.8c1,1.5,2.4,2.6,4,3.3
	C40.1,51.9,41.8,52.2,43.6,52.2z M19.9,41.4c0,3.4,0,6.8,0,10.1c0,0.4,0,0.4,0.4,0.4c1.5,0,3,0,4.5,0c0.5,0,0.5,0,0.5-0.5
	c0-6.7,0-13.4,0-20.1c0-0.4,0-0.4,0.4-0.4c1.6,0,3.3,0,4.9,0c0.6,0,1.2,0,1.8,0c0.2,0,0.3,0,0.3-0.2c0-1.4,0-2.8,0-4.2
	c0-0.3-0.1-0.3-0.4-0.3c-1.2,0-2.4,0-3.7,0c-4.3,0-8.5,0-12.8,0c-1,0-1.9,0-2.9,0c-0.4,0-0.4,0-0.4,0.4c0,1.3,0,2.6,0,4
	c0,0.4,0,0.4,0.4,0.4c2.2,0,4.4,0,6.6,0c0.4,0,0.4,0,0.4,0.4C19.9,34.7,19.9,38,19.9,41.4z"/>
</svg>
